name C:\Users\r0593348\3dpredictsim\Results\Batchsim_tmt_linear\Pog_s1_tmt_aCst_d05_k500_ig24_act.mot
datacolumns 128
datarows 4
range 0.00000000 0.03662826
endheader
time	pelvis_tilt	pelvis_list	pelvis_rotation	pelvis_tx	pelvis_ty	pelvis_tz	hip_flexion_l	hip_adduction_l	hip_rotation_l	hip_flexion_r	hip_adduction_r	hip_rotation_r	knee_angle_l	knee_angle_r	ankle_angle_l	ankle_angle_r	subtalar_angle_l	subtalar_angle_r	tmt_angle_l	tmt_angle_r	mtp_angle_l	mtp_angle_r	lumbar_extension	lumbar_bending	lumbar_rotation	arm_flex_l	arm_add_l	arm_rot_l	arm_flex_r	arm_add_r	arm_rot_r	elbow_flex_l	elbow_flex_r	pro_sup_l	pro_sup_r	glut_med1_l/activation	glut_med2_l/activation	glut_med3_l/activation	glut_min1_l/activation	glut_min2_l/activation	glut_min3_l/activation	semimem_l/activation	semiten_l/activation	bifemlh_l/activation	bifemsh_l/activation	sar_l/activation	add_long_l/activation	add_brev_l/activation	add_mag1_l/activation	add_mag2_l/activation	add_mag3_l/activation	tfl_l/activation	pect_l/activation	grac_l/activation	glut_max1_l/activation	glut_max2_l/activation	glut_max3_l/activation	iliacus_l/activation	psoas_l/activation	quad_fem_l/activation	gem_l/activation	peri_l/activation	rect_fem_l/activation	vas_med_l/activation	vas_int_l/activation	vas_lat_l/activation	med_gas_l/activation	lat_gas_l/activation	soleus_l/activation	tib_post_l/activation	flex_dig_l/activation	flex_hal_l/activation	tib_ant_l/activation	per_brev_l/activation	per_long_l/activation	per_tert_l/activation	ext_dig_l/activation	ext_hal_l/activation	ercspn_l/activation	intobl_l/activation	extobl_l/activation	glut_med1_r/activation	glut_med2_r/activation	glut_med3_r/activation	glut_min1_r/activation	glut_min2_r/activation	glut_min3_r/activation	semimem_r/activation	semiten_r/activation	bifemlh_r/activation	bifemsh_r/activation	sar_r/activation	add_long_r/activation	add_brev_r/activation	add_mag1_r/activation	add_mag2_r/activation	add_mag3_r/activation	tfl_r/activation	pect_r/activation	grac_r/activation	glut_max1_r/activation	glut_max2_r/activation	glut_max3_r/activation	iliacus_r/activation	psoas_r/activation	quad_fem_r/activation	gem_r/activation	peri_r/activation	rect_fem_r/activation	vas_med_r/activation	vas_int_r/activation	vas_lat_r/activation	med_gas_r/activation	lat_gas_r/activation	soleus_r/activation	tib_post_r/activation	flex_dig_r/activation	flex_hal_r/activation	tib_ant_r/activation	per_brev_r/activation	per_long_r/activation	per_tert_r/activation	ext_dig_r/activation	ext_hal_r/activation	ercspn_r/activation	intobl_r/activation	extobl_r/activation	
          0.00000000	         -2.92978421	         -0.88473983	          7.79259352	          0.00000000	          0.86060707	         -0.00221037	        -15.47278614	         -1.42744035	          9.32716181	         32.57933339	          0.48698265	         -0.05281667	        -16.45376790	        -16.20292254	        -10.94681146	          8.67375236	         14.33677137	          2.11160379	          2.00598699	          0.05074315	         30.18088084	         -0.08314619	         -0.54992197	         -1.41330739	         -2.76076317	          4.52705959	        -13.48100478	         18.63965398	         -9.40496322	        -13.52884532	         11.50339946	         41.38218206	         15.83106946	         86.51662706	         86.51662706	          0.19942368	          0.09634945	          0.06017980	          0.22065575	          0.14429372	          0.10488834	          0.05000527	          0.05000039	          0.05000038	          0.05000435	          0.10490153	          0.05000023	          0.05000017	          0.05000023	          0.05000066	          0.05000066	          0.19907286	          0.05000087	          0.05000051	          0.05001804	          0.05000442	          0.05000108	          0.43738410	          0.56686720	          0.05000025	          0.05000295	          0.06331819	          0.23606594	          0.10774641	          0.11289387	          0.10503346	          0.15180783	          0.23347926	          0.06017449	          0.16662157	          0.19684768	          0.21416144	          0.05000003	          0.39833739	          0.35918831	          0.05000015	          0.17540284	          0.05000025	          0.05000001	          0.05000003	          0.05000006	          0.05003290	          0.05000798	          0.06017408	          0.05000108	          0.05000140	          0.05001245	          0.16068245	          0.06017694	          0.17386030	          0.05008063	          0.05000129	          0.06198621	          0.12087789	          0.13844310	          0.13478805	          0.11294284	          0.05065487	          0.05001516	          0.07239930	          0.06017421	          0.06017459	          0.08534161	          0.05936940	          0.06328962	          0.15181084	          0.05000058	          0.05000170	          0.05000088	          0.05000607	          0.07020484	          0.05001263	          0.06481804	          0.06259620	          0.05824943	          0.06017451	          0.06017606	          0.06017823	          0.46011393	          0.28800515	          0.20748739	          0.09632739	          0.48855232	          0.27393101	          0.05144732	          0.13294448	          0.11743208	
          0.01220942	         -2.92906629	         -0.82585068	          7.98975472	          0.01947986	          0.85929656	         -0.00193056	        -15.75479957	         -1.64221441	          9.13553881	         31.97367537	          0.74916692	          0.12358267	        -17.49013023	        -16.01080375	        -13.93044318	          8.20134934	         14.83619921	          1.70451871	          1.89458760	          0.05137112	         31.81472820	         -0.06800453	         -0.30671847	         -1.26828219	         -2.85350209	          4.06443806	        -13.52817931	         18.80093226	        -10.77846164	        -13.51330474	         11.33198763	         42.63591281	         15.77377079	         86.51662706	         86.51662706	          0.16570465	          0.08005847	          0.05000457	          0.18334669	          0.11989619	          0.08715368	          0.05000213	          0.05000019	          0.05000019	          0.05000061	          0.08716476	          0.11640224	          0.19033464	          0.05001202	          0.05000648	          0.05000072	          0.16541303	          0.10220065	          0.06016490	          0.05000327	          0.05000181	          0.05000139	          0.36342974	          0.47101942	          0.06941831	          0.05000387	          0.05261236	          0.19615110	          0.10813815	          0.10665127	          0.09748379	          0.12613964	          0.19400179	          0.05000003	          0.13844863	          0.16356406	          0.17795032	          0.19130978	          0.38073808	          0.32812997	          0.47628281	          0.36225692	          0.05000144	          0.05000017	          0.05000030	          0.07653891	          0.05000070	          0.05000115	          0.05000024	          0.06017466	          0.06017443	          0.05000202	          0.13816686	          0.05000216	          0.15121942	          0.05919908	          0.06017436	          0.10489064	          0.18285622	          0.11503680	          0.13952256	          0.14310127	          0.05000018	          0.07607233	          0.06015915	          0.05000037	          0.05000028	          0.16977782	          0.06017654	          0.06017544	          0.19431651	          0.18284548	          0.13781671	          0.07241951	          0.19847255	          0.19824315	          0.17229994	          0.05385840	          0.05201228	          0.05515062	          0.05000006	          0.05000150	          0.05000338	          0.62502149	          0.30725830	          0.17240533	          0.50182301	          0.59549914	          0.46310467	          0.05000011	          0.11046577	          0.09757627	
          0.02441884	         -2.92138369	         -0.77405002	          8.14752598	          0.03922066	          0.85760947	         -0.00165287	        -15.84600757	         -1.81720765	          8.94029629	         31.25291206	          1.02665926	          0.35428615	        -18.89684214	        -16.42964084	        -16.66241827	          7.45153238	         15.30370753	          1.29743720	          1.61508369	          0.06676927	         32.74014491	         -0.03982312	         -0.05186546	         -1.10074027	         -2.93358540	          3.51704431	        -13.59353589	         18.88338858	        -12.14407092	        -13.50785696	         11.22556760	         43.89904864	         15.70485922	         86.51662706	         86.51662706	          0.13768680	          0.06652211	          0.06017572	          0.15234596	          0.09962385	          0.07241763	          0.05763159	          0.05816813	          0.06433659	          0.05000015	          0.07242683	          0.20217489	          0.28424873	          0.32012168	          0.10009935	          0.15150747	          0.13744448	          0.08492073	          0.05000180	          0.06014319	          0.06018126	          0.07240547	          0.30197982	          0.39137789	          0.07241897	          0.07223218	          0.06017482	          0.16298520	          0.10487294	          0.10488801	          0.08844328	          0.10481152	          0.16119931	          0.05211516	          0.11503926	          0.13590814	          0.14786190	          0.37152041	          0.44859942	          0.33332878	          0.69089231	          0.47811828	          0.24212601	          0.06931418	          0.06351984	          0.06772653	          0.05000012	          0.05000040	          0.14421013	          0.05000024	          0.05000022	          0.05000042	          0.11480522	          0.05000022	          0.12565076	          0.05000005	          0.05000025	          0.08715555	          0.15193852	          0.26433762	          0.23995430	          0.15121806	          0.06017466	          0.06321146	          0.05000202	          0.13474424	          0.12976654	          0.15005513	          0.05000173	          0.05000091	          0.25489945	          0.15192944	          0.11451429	          0.06017489	          0.26642731	          0.26660992	          0.23168816	          0.05000008	          0.05000020	          0.05000002	          0.06017405	          0.06017533	          0.06017473	          0.61441090	          0.38779104	          0.20774776	          0.44430677	          0.56927044	          0.38480146	          0.05000001	          0.09178785	          0.08107774	
          0.03662826	         -2.90861007	         -0.73314183	          8.26346253	          0.05898905	          0.85558775	         -0.00140288	        -15.73204366	         -1.95005804	          8.74701529	         30.35399306	          1.27347259	          0.63057625	        -20.69579349	        -17.12334517	        -18.77935664	          6.94498881	         15.69903173	          0.86782818	          1.17742865	         -0.03807911	         32.14848164	         -0.19995591	          0.19577913	         -0.90818471	         -2.99626758	          2.92210632	        -13.66498289	         18.88977425	        -13.45142509	        -13.52138733	         11.23678586	         45.15779384	         15.58927267	         86.51662706	         86.51662706	          0.33196886	          0.05527473	          0.05000113	          0.16411006	          0.08277940	          0.06017391	          0.08494249	          0.05000089	          0.05345863	          0.05000851	          0.06018229	          0.16799053	          0.23618731	          0.26599450	          0.08317466	          0.12589028	          0.11420502	          0.07056516	          0.05442478	          0.05000435	          0.05000656	          0.06016325	          0.25092008	          0.36173708	          0.06017423	          0.06001933	          0.05000057	          0.13542710	          0.08714071	          0.08715324	          0.07348902	          0.08708964	          0.13394319	          0.05000023	          0.09558804	          0.11292840	          0.12286095	          0.31063626	          0.37275178	          0.28377202	          0.67605634	          0.63513226	          0.20118664	          0.09800339	          0.05277969	          0.05627513	          0.24027423	          0.29997756	          0.41039835	          0.27761825	          0.17639972	          0.23482982	          0.09539423	          0.09789197	          0.10440647	          0.07242117	          0.05000857	          0.07241907	          0.12624829	          0.21964272	          0.19938475	          0.16315497	          0.05000037	          0.05252716	          0.09045799	          0.24809282	          0.20086687	          0.17669030	          0.05000031	          0.05000022	          0.21180076	          0.12624146	          0.31646077	          0.05000034	          0.22137897	          0.22153077	          0.19251364	          0.05000011	          0.05000016	          0.05000004	          0.05000001	          0.05000089	          0.05000047	          0.68661736	          0.34421059	          0.17262121	          0.69365751	          0.67850440	          0.48747964	          0.05503859	          0.08715584	          0.06736885	
